<svg version="1" xmlns="http://www.w3.org/2000/svg" width="1365.333" height="1365.333" viewBox="0 0 1024.000000 1024.000000"><path d="M482.6 1c-102.5 6.4-197 41.1-278.1 101.9-19.4 14.6-33.2 26.7-54 47.5-21.9 21.9-33.7 35.4-49.3 56.4C23.9 310.5-11.2 441.4 3.5 570c15.9 137.7 85 260.6 195.2 346.7 13 10.1 43.7 30.7 58.3 39.1 24.4 13.9 54.7 27.9 81.5 37.7 12.4 4.5 13.4 4.7 21.6 4.3 12.8-.6 19.7-5.2 23.4-15.9 1.7-4.7 2-41.2.8-81.3l-.6-21.8-5.1.7c-2.8.3-9.8 1.3-15.6 2.1-15.1 2.1-43.5 2.9-55.8 1.5-48.6-5.3-78-24.8-93.8-62.1-14.4-34.1-37.6-66-55.9-76.7-18-10.6-26-22.6-18.9-28.2 3.9-3.1 9.6-4.3 20.8-4.3 17.9-.1 32.5 5.6 49.6 19.1 10.4 8.2 20 19.4 30.8 35.6 9.4 14.2 22.1 28.2 31.7 35 24.4 17.3 54.7 22.2 88.2 14 10.3-2.5 25.8-8 26.7-9.4.3-.4 1.2-4.3 2.1-8.7 4.4-22 13.5-41 25.7-54l4.9-5.2-8.3-1.1c-55.1-7.8-93.2-19.7-125.3-39.1-66.9-40.4-100.3-113.7-98.2-215.5.5-25.6 2-36.7 7.2-55.1 7.5-26.2 21-51.8 38.2-72.3 3.9-4.7 6.1-8.2 5.7-9.1-1.7-4.6-5.7-19.6-7-27-2.1-11.5-2.9-37.1-1.5-49.8 1.9-18 8.9-46.1 13.8-55.6l1.5-2.8 14.1.5c11.6.4 16.3 1 25.9 3.6 26.3 6.9 63.2 24.6 92.6 44.3l7.3 4.9 14.2-3.5c41.2-10.2 80.2-14.3 125.2-13.3 39.4.9 75.3 5.7 107.3 14.3l9.3 2.5 10.7-6.9c31.9-20.7 64.1-36 89-42.3 13.5-3.4 29.5-5.2 36.7-4.1l5 .7 4.2 12.6c13.2 39.3 14.4 78.5 3.6 115l-2.5 8.6 6.2 7.4c29.9 35.5 46.1 82 46 132.4-.1 49.4-9.6 96.5-26.5 131C781 685 720.6 722.2 622.7 735.9c-8.1 1.2-15 2.1-15.3 2.1-.4 0 1.6 2.4 4.4 5.4 12.9 13.6 21.7 32.9 26.5 57.6 2.2 11.3 2.2 13 2.2 95.5v84l2.4 4.8c6.2 12.5 21.2 16.1 39.8 9.6 25.6-9.1 59.8-24.6 82.8-37.8 15.1-8.7 45.7-29.2 59-39.6 35.5-27.7 70.6-63.3 96.6-98 57.4-76.6 90.7-162.8 100.5-260.5 2.1-20.3 2.4-69.4.5-89-6.3-68.7-24-131.2-53.6-189.5-25.2-49.6-54.3-89.4-94.9-130-37.5-37.5-69.8-61.9-115.2-87.2C707 34.8 643.6 13.5 586.1 5.6 554.3 1.1 511-.8 482.6 1z"/></svg>